<?xml version="1.0" encoding="UTF-8" standalone="no"?>
<svg
   xmlns:dc="http://purl.org/dc/elements/1.1/"
   xmlns:cc="http://creativecommons.org/ns#"
   xmlns:rdf="http://www.w3.org/1999/02/22-rdf-syntax-ns#"
   xmlns:svg="http://www.w3.org/2000/svg"
   xmlns="http://www.w3.org/2000/svg"
   viewBox="0 0 377.95334 188.976"
   height="188.976"
   width="377.95334"
   xml:space="preserve"
   id="svg2"
   version="1.1"><metadata
     id="metadata8"><rdf:RDF><cc:Work
         rdf:about=""><dc:format>image/svg+xml</dc:format><dc:type
           rdf:resource="http://purl.org/dc/dcmitype/StillImage" /></cc:Work></rdf:RDF></metadata><defs
     id="defs6"><clipPath
       id="clipPath18"
       clipPathUnits="userSpaceOnUse"><path
         id="path16"
         d="M 0,0 H 283.465 V 141.732 H 0 Z" /></clipPath></defs><g
     transform="matrix(1.3333333,0,0,-1.3333333,0,188.976)"
     id="g10"><g
       id="g12"><g
         clip-path="url(#clipPath18)"
         id="g14"><g
           transform="translate(49.6407,30.6559)"
           id="g20"><path
             id="path22"
             style="fill:#231f20;fill-opacity:1;fill-rule:nonzero;stroke:none"
             d="m 0,0 c 13.403,0 19.673,7.134 19.673,15.998 0,10.485 -7.026,12.538 -18.268,16.97 -5.08,1.946 -8.323,3.783 -8.323,6.377 0,3.243 3.351,4.54 5.729,4.54 4.107,0 8.972,-1.621 13.187,-5.62 l 6.053,9.512 c -5.837,4.756 -11.89,6.593 -18.591,6.593 -10.81,0 -18.592,-6.269 -18.592,-14.916 0,-10.377 7.458,-14.269 16.105,-17.295 C 3.891,19.781 7.35,18.484 7.35,15.781 7.35,12.647 4.648,10.593 0,10.593 c -6.486,0 -11.025,2.054 -15.241,6.161 L -21.294,7.675 C -15.781,2.81 -8.539,0 0,0 M 74.915,27.888 C 74.915,43.237 64.862,54.37 49.297,54.37 34.596,54.37 23.571,43.453 23.571,27.239 23.571,10.809 35.137,0 50.486,0 60.863,0 68.321,4.216 72.753,9.944 l -8.431,7.243 c -2.703,-3.351 -7.026,-6.162 -13.188,-6.162 -7.782,0 -13.403,4.54 -15.024,11.999 h 38.48 c 0.108,0.972 0.325,2.918 0.325,4.864 m -24.97,15.565 c 6.918,0 11.242,-4.324 12.755,-10.701 H 36.326 c 1.729,6.918 6.918,10.701 13.619,10.701 M 81.944,0.865 H 94.05 V 80.421 H 81.944 Z M 124.472,23.024 138.2,0.865 h 13.62 L 132.471,32.32 151.495,53.614 H 137.119 L 115.501,29.509 V 80.42 H 103.395 V 0.865 h 12.106 v 12.43 l 8.755,9.729 z M 177.806,0 c 16.214,0 27.671,11.133 27.671,27.131 0,16.214 -11.457,27.239 -27.671,27.239 -16.646,0 -27.672,-11.674 -27.672,-27.239 C 150.134,11.674 161.16,0 177.806,0 m 0,11.025 c -9.08,0 -15.349,7.134 -15.349,16.106 0,9.188 6.161,16.322 15.349,16.322 8.647,0 15.349,-6.594 15.349,-16.322 0,-9.512 -6.81,-16.106 -15.349,-16.106" /></g></g></g></g></svg>