<?xml version="1.0" standalone="no"?>
<!DOCTYPE svg PUBLIC "-//W3C//DTD SVG 20010904//EN"
 "http://www.w3.org/TR/2001/REC-SVG-20010904/DTD/svg10.dtd">
<svg version="1.0" xmlns="http://www.w3.org/2000/svg"
 width="158.000000pt" height="158.000000pt" viewBox="0 0 158.000000 158.000000"
 preserveAspectRatio="xMidYMid meet">
<metadata>
Created by potrace 1.13, written by Peter Selinger 2001-2015
</metadata>
<g transform="translate(0.000000,158.000000) scale(0.100000,-0.100000)"
fill="#000000" stroke="none">
<path d="M0 795 l0 -785 785 0 785 0 0 785 0 785 -785 0 -785 0 0 -785z m830
165 l0 -130 125 0 125 0 0 -40 0 -40 -125 0 -125 0 0 -125 0 -125 -45 0 -45 0
0 125 0 125 -125 0 -125 0 0 40 0 40 125 0 125 0 0 123 c0 68 3 127 7 130 3 4
24 7 45 7 l38 0 0 -130z"/>
</g>
</svg>
