<?xml version="1.0" standalone="no"?>
<!DOCTYPE svg PUBLIC "-//W3C//DTD SVG 20010904//EN"
 "http://www.w3.org/TR/2001/REC-SVG-20010904/DTD/svg10.dtd">
<svg version="1.0" xmlns="http://www.w3.org/2000/svg"
 width="157.000000pt" height="157.000000pt" viewBox="0 0 157.000000 157.000000"
 preserveAspectRatio="xMidYMid meet">
<metadata>
Created by potrace 1.13, written by Peter Selinger 2001-2015
</metadata>
<g transform="translate(0.000000,157.000000) scale(0.100000,-0.100000)"
fill="#000000" stroke="none">
<path d="M0 785 l0 -785 785 0 785 0 0 785 0 785 -785 0 -785 0 0 -785z m870
150 l90 89 30 -29 30 -29 -90 -91 -90 -90 90 -90 90 -90 -30 -30 -30 -30 -90
90 -90 90 -90 -90 -89 -89 -26 24 c-14 13 -25 28 -25 34 0 7 38 49 85 96 l85
85 -87 87 -87 88 29 30 29 30 88 -87 88 -88 90 90z"/>
</g>
</svg>
