<?xml version="1.0" standalone="no"?>
<!DOCTYPE svg PUBLIC "-//W3C//DTD SVG 20010904//EN"
 "http://www.w3.org/TR/2001/REC-SVG-20010904/DTD/svg10.dtd">
<svg version="1.0" xmlns="http://www.w3.org/2000/svg"
 width="157.000000pt" height="156.000000pt" viewBox="0 0 157.000000 156.000000"
 preserveAspectRatio="xMidYMid meet">
<metadata>
Created by potrace 1.13, written by Peter Selinger 2001-2015
</metadata>
<g transform="translate(0.000000,156.000000) scale(0.100000,-0.100000)"
fill="#000000" stroke="none">
<path d="M0 780 l0 -780 785 0 785 0 0 780 0 780 -785 0 -785 0 0 -780z m715
220 l71 -70 69 70 c38 38 74 70 80 70 7 0 22 -11 35 -25 l23 -25 -78 -82 c-43
-46 -89 -94 -102 -108 l-23 -25 -105 105 -105 104 27 28 c15 15 29 28 32 28 3
0 37 -32 76 -70z m365 -475 l0 -45 -295 0 -295 0 0 45 0 45 295 0 295 0 0 -45z"/>
</g>
</svg>
