<?xml version="1.0" standalone="no"?>
<!DOCTYPE svg PUBLIC "-//W3C//DTD SVG 20010904//EN"
 "http://www.w3.org/TR/2001/REC-SVG-20010904/DTD/svg10.dtd">
<svg version="1.0" xmlns="http://www.w3.org/2000/svg"
 width="156.000000pt" height="156.000000pt" viewBox="0 0 156.000000 156.000000"
 preserveAspectRatio="xMidYMid meet">
<metadata>
Created by potrace 1.13, written by Peter Selinger 2001-2015
</metadata>
<g transform="translate(0.000000,156.000000) scale(0.100000,-0.100000)"
fill="#000000" stroke="none">
<path d="M0 780 l0 -780 780 0 780 0 0 780 0 780 -780 0 -780 0 0 -780z m882
193 c54 -54 98 -103 98 -109 0 -6 -11 -21 -25 -34 l-26 -24 -74 74 -75 74 -75
-74 -75 -74 -30 29 -30 29 102 103 c56 57 105 103 108 103 2 0 49 -44 102 -97z
m188 -448 l0 -45 -292 2 -293 3 -3 28 c-7 59 -18 57 298 57 l290 0 0 -45z"/>
</g>
</svg>
