<?xml version="1.0" standalone="no"?>
<!DOCTYPE svg PUBLIC "-//W3C//DTD SVG 20010904//EN"
 "http://www.w3.org/TR/2001/REC-SVG-20010904/DTD/svg10.dtd">
<svg version="1.0" xmlns="http://www.w3.org/2000/svg"
 width="157.000000pt" height="156.000000pt" viewBox="0 0 157.000000 156.000000"
 preserveAspectRatio="xMidYMid meet">
<metadata>
Created by potrace 1.13, written by Peter Selinger 2001-2015
</metadata>
<g transform="translate(0.000000,156.000000) scale(0.100000,-0.100000)"
fill="#000000" stroke="none">
<path d="M0 780 l0 -780 785 0 785 0 0 780 0 780 -785 0 -785 0 0 -780z m908
305 l44 -18 -34 -34 c-31 -30 -37 -33 -62 -23 -35 13 -107 13 -142 0 -24 -10
-31 -7 -61 22 -30 29 -31 33 -16 42 69 39 191 44 271 11z m-375 -173 c27 -28
27 -30 16 -80 -10 -40 -10 -64 0 -104 11 -50 11 -52 -16 -80 -15 -15 -30 -28
-34 -28 -17 0 -43 97 -43 160 0 63 26 160 43 160 4 0 19 -13 34 -28z m568 -46
c14 -53 7 -161 -14 -210 l-17 -39 -34 33 c-29 28 -33 36 -25 57 11 29 11 120
-1 148 -6 15 0 28 23 53 29 30 33 31 45 15 7 -9 17 -35 23 -57z m-334 -323
c28 -3 67 0 85 6 30 11 34 9 66 -23 l34 -34 -48 -18 c-65 -25 -173 -25 -237 0
l-49 18 33 34 c22 22 39 32 49 28 8 -4 38 -9 67 -11z"/>
</g>
</svg>
