<?xml version="1.0" standalone="no"?>
<!DOCTYPE svg PUBLIC "-//W3C//DTD SVG 20010904//EN"
 "http://www.w3.org/TR/2001/REC-SVG-20010904/DTD/svg10.dtd">
<svg version="1.0" xmlns="http://www.w3.org/2000/svg"
 width="159.000000pt" height="159.000000pt" viewBox="0 0 159.000000 159.000000"
 preserveAspectRatio="xMidYMid meet">
<metadata>
Created by potrace 1.13, written by Peter Selinger 2001-2015
</metadata>
<g transform="translate(0.000000,159.000000) scale(0.100000,-0.100000)"
fill="#000000" stroke="none">
<path d="M500 1055 l0 -45 293 2 292 3 0 40 0 40 -292 3 -293 2 0 -45z"/>
<path d="M500 925 l0 -45 293 2 292 3 3 43 3 42 -295 0 -296 0 0 -45z"/>
<path d="M500 800 l0 -40 295 0 295 0 0 40 0 40 -295 0 -295 0 0 -40z"/>
<path d="M500 675 l0 -45 293 2 292 3 0 40 0 40 -292 3 -293 2 0 -45z"/>
<path d="M500 550 l0 -40 145 0 145 0 0 40 0 40 -145 0 -145 0 0 -40z"/>
</g>
</svg>
