<?xml version="1.0" standalone="no"?>
<!DOCTYPE svg PUBLIC "-//W3C//DTD SVG 20010904//EN"
 "http://www.w3.org/TR/2001/REC-SVG-20010904/DTD/svg10.dtd">
<svg version="1.0" xmlns="http://www.w3.org/2000/svg"
 width="156.000000pt" height="156.000000pt" viewBox="0 0 156.000000 156.000000"
 preserveAspectRatio="xMidYMid meet">
<metadata>
Created by potrace 1.13, written by Peter Selinger 2001-2015
</metadata>
<g transform="translate(0.000000,156.000000) scale(0.100000,-0.100000)"
fill="#000000" stroke="none">
<path d="M0 780 l0 -780 780 0 780 0 0 780 0 780 -780 0 -780 0 0 -780z m820
150 l0 -150 -40 0 -40 0 0 150 0 150 40 0 40 0 0 -150z m0 -410 l0 -40 -40 0
-40 0 0 40 0 40 40 0 40 0 0 -40z"/>
</g>
</svg>
